<svg xmlns="http://www.w3.org/2000/svg" viewBox="0 0 100 100">
  <path d="
    M 30 20
    C 45 20, 65 20, 80 20
    Q 82 20, 82 22
    L 82 28
    Q 82 30, 80 30
    C 65 30, 55 30, 50 30
    L 50 50
    C 55 50, 60 50, 70 50
    Q 72 50, 72 52
    L 72 58
    Q 72 60, 70 60
    C 65 60, 55 60, 50 60
    L 50 85
    Q 50 87, 48 87
    L 42 87
    Q 40 87, 40 85
    L 40 22
    Q 40 20, 38 20
    L 32 20
    Q 30 20, 30 22
    Z" 
  />
  <style>
    path { 
      fill: #000;
      stroke: #000;
      stroke-width: 1;
    }
    @media (prefers-color-scheme: dark) {
      path { 
        fill: #FFF;
        stroke: #FFF;
      }
    }
  </style>
</svg>
